#!OML:ASF I:\golf\golf\golf 2\Subject 1\2002-09-07\Subject1.ASF
:FULLY-SPECIFIED
:DEGREES
299
root -0.832768 17.1406 -3.71861 83.3505 27.9387 25.8139
lowerback 19.7018 4.55954 7.06921
upperback 13.748 7.26312 12.3492
thorax 3.31857 3.55773 8.26574
lowerneck -13.028 -13.0292 -0.638775
upperneck -7.40323 -17.9897 -1.03713
head -0.318644 -9.26033 -0.825269
rclavicle 3.18055e-015 -5.40694e-014
rhumerus 56.2771 -23.8925 -25.689
rradius 21.2532
rwrist 10.7803
rhand -31.6598 4.24411
rfingers 7.12502
rthumb -4.92021 -25.6788
lclavicle 3.18055e-015 -5.40694e-014
lhumerus -26.7501 -23.8209 96.7367
lradius 74.8717
lwrist 14.8356
lhand -7.894 24.6405
lfingers 7.12502
lthumb 18.0108 53.8266
rfemur -100.656 -16.2674 10.672
rtibia 43.0246
rfoot -6.03567 -12.3163
rtoes 18.1218
lfemur -49.3048 -0.271199 -9.8377
ltibia 30.776
lfoot 10.6645 -5.39683
ltoes -10.989
300
root -0.828445 17.122 -3.69805 83.7206 27.9693 25.8697
lowerback 19.6389 4.6024 7.2496
upperback 13.7398 7.33496 12.4298
thorax 3.34985 3.59738 8.2492
lowerneck -12.786 -13.0447 -0.572299
upperneck -7.88161 -18.0517 -0.960479
head -0.507797 -9.29602 -0.769892
rclavicle -6.04305e-014 9.54166e-015
rhumerus 55.7557 -23.752 -24.2949
rradius 21.3786
rwrist 10.9815
rhand -30.9346 3.68447
rfingers 7.12502
rthumb -4.21999 -26.2535
lclavicle -6.04305e-014 9.54166e-015
lhumerus -26.7024 -23.9286 96.7543
lradius 75.016
lwrist 15.3837
lhand -7.36094 23.8383
lfingers 7.12502
lthumb 18.5237 52.9764
rfemur -101.101 -16.3639 10.9098
rtibia 43.1265
rfoot -6.40945 -12.232
rtoes 19.7652
lfemur -49.3262 -0.00575681 -9.91941
ltibia 30.9515
lfoot 10.8992 -5.20821
ltoes -10.5161
301
root -0.833719 17.1091 -3.66912 83.8597 27.9916 25.5142
lowerback 19.6487 4.7873 7.20044
upperback 13.7939 7.55265 12.5249
thorax 3.36659 3.6922 8.34777
lowerneck -12.3235 -13.0045 -0.470388
upperneck -8.64643 -18.0519 -0.774603
head -0.812593 -9.30077 -0.65572
rclavicle 6.36111e-015 -2.54444e-014
rhumerus 55.3591 -23.5035 -23.1679
rradius 21.4196
rwrist 10.9693
rhand -30.8341 3.10903
rfingers 7.12502
rthumb -4.12291 -26.8308
lclavicle 6.36111e-015 -2.54444e-014
lhumerus -26.8258 -24.5091 97.0587
lradius 75.5448
lwrist 13.8726
lhand -8.69563 26.1445
lfingers 7.12502
lthumb 17.2394 55.3998
rfemur -101.556 -16.0268 11.3236
rtibia 43.184
rfoot -6.64453 -12.085
rtoes 20.5449
lfemur -49.2653 0.858673 -10.0612
ltibia 31.1473
lfoot 11.2394 -5.39216
ltoes -9.95104
302
root -0.831431 17.0918 -3.64938 84.1863 28.0086 25.4119
lowerback 19.4892 4.86765 7.26887
upperback 13.8378 7.6354 12.5867
thorax 3.49191 3.73098 8.38507
lowerneck -12.0392 -12.9747 -0.434718
upperneck -9.30609 -18.0429 -0.514659
head -1.04381 -9.30178 -0.532072
rclavicle 7.95139e-014 2.8625e-014
rhumerus 55.2657 -23.4446 -22.7009
rradius 21.3046
rwrist 11.3431
rhand -30.8347 2.46283
rfingers 7.12502
rthumb -4.12354 -27.477
lclavicle 7.95139e-014 2.8625e-014
lhumerus -26.6542 -24.4124 97.0558
lradius 75.7717
lwrist 14.3442
lhand -8.24224 26.018
lfingers 7.12502
lthumb 17.6757 55.2345
rfemur -102.018 -15.9488 11.6567
rtibia 43.2315
rfoot -6.58954 -12.1007
rtoes 22.2878
lfemur -49.3802 1.11386 -10.0582
ltibia 31.3646
lfoot 11.497 -5.38102
ltoes -10.169
303
root -0.82545 17.0744 -3.6327 84.5599 27.9737 25.4317
lowerback 19.3149 4.92317 7.36737
upperback 13.8646 7.69073 12.6414
thorax 3.61368 3.75893 8.40312
lowerneck -11.9842 -12.9999 -0.444759
upperneck -9.67909 -18.0917 -0.345987
head -1.15489 -9.33187 -0.461449
rclavicle 0 -9.54166e-015
rhumerus 54.9912 -23.3549 -22.0367
rradius 21.2322
rwrist 11.485
rhand -30.6805 2.04198
rfingers 7.12502
rthumb -3.97459 -27.9007
lclavicle 0 -9.54166e-015
lhumerus -26.4942 -24.4439 97.1126
lradius 76.0449
lwrist 14.8117
lhand -7.90286 26.1252
lfingers 7.12502
lthumb 18.0023 55.3121
rfemur -102.464 -15.9877 11.9068
rtibia 43.2985
rfoot -6.40427 -12.0809
rtoes 22.5962
lfemur -49.5234 1.12203 -10.0891
ltibia 31.6067
lfoot 11.6132 -5.46504
ltoes -10.4509
304
root -0.820926 17.0608 -3.6162 84.8262 27.885 25.3524
lowerback 19.2216 5.01014 7.34187
upperback 13.8697 7.78178 12.6955
thorax 3.64763 3.79706 8.47116
lowerneck -11.7832 -13.0634 -0.424115
upperneck -10.0191 -18.2012 -0.236152
head -1.28682 -9.39137 -0.403564
rclavicle -2.8625e-014 -1.49486e-013
rhumerus 54.4176 -22.9845 -20.8652
rradius 21.2934
rwrist 11.0408
rhand -30.7449 1.72413
rfingers 7.12502
rthumb -4.03679 -28.2174
lclavicle -2.8625e-014 -1.49486e-013
lhumerus -26.4303 -24.4593 97.1667
lradius 76.4248
lwrist 15.3521
lhand -7.66762 26.2609
lfingers 7.12502
lthumb 18.2286 55.4268
rfemur -102.852 -15.922 12.0693
rtibia 43.3665
rfoot -6.29045 -11.9849
rtoes 21.5471
lfemur -49.5902 1.08217 -10.0893
ltibia 31.8647
lfoot 11.7007 -5.33979
ltoes -9.9765
305
root -0.816395 17.0519 -3.60361 85.102 27.8875 25.3395
lowerback 19.2387 5.01908 7.42325
upperback 13.7881 7.8148 12.7282
thorax 3.55053 3.81493 8.44576
lowerneck -11.5503 -13.0377 -0.342312
upperneck -10.292 -18.1908 -0.183686
head -1.41196 -9.38947 -0.36836
rclavicle 1.49486e-013 6.36111e-015
rhumerus 54.0337 -22.641 -20.2168
rradius 21.3116
rwrist 11.0089
rhand -30.8395 1.48069
rfingers 7.12502
rthumb -4.12818 -28.4591
lclavicle 1.49486e-013 6.36111e-015
lhumerus -26.551 -24.4792 97.2317
lradius 76.807
lwrist 15.4246
lhand -7.67029 26.2322
lfingers 7.12502
lthumb 18.2261 55.3983
rfemur -103.143 -15.9151 12.1188
rtibia 43.4181
rfoot -6.28063 -11.996
rtoes 21.3865
lfemur -49.6995 0.907603 -9.97317
ltibia 32.1199
lfoot 11.827 -5.13386
ltoes -10.0863
306
root -0.812197 17.0486 -3.58495 85.2356 27.9468 25.1166
lowerback 19.3417 5.06898 7.52811
upperback 13.7452 7.90704 12.7693
thorax 3.45044 3.86068 8.40225
lowerneck -11.3921 -13.0165 -0.364752
upperneck -10.5875 -18.1691 -0.0602541
head -1.51722 -9.38025 -0.303758
rclavicle 0 1.30403e-013
rhumerus 53.9781 -22.5014 -20.233
rradius 21.255
rwrist 11.4802
rhand -31.1851 1.4406
rfingers 7.12502
rthumb -4.46184 -28.4924
lclavicle 0 1.30403e-013
lhumerus -26.5558 -24.4708 97.2295
lradius 77.1942
lwrist 15.7267
lhand -7.47292 26.1948
lfingers 7.12502
lthumb 18.4159 55.3431
rfemur -103.346 -15.6975 12.1516
rtibia 43.4386
rfoot -6.25162 -12.0659
rtoes 21.3776
lfemur -49.7477 1.02429 -9.86264
ltibia 32.3681
lfoot 11.8911 -5.35543
ltoes -11.1598
307
root -0.812111 17.0446 -3.5668 85.3613 27.9774 24.8304
lowerback 19.4238 5.12285 7.55914
upperback 13.751 7.98474 12.7888
thorax 3.40973 3.89565 8.3853
lowerneck -11.4026 -12.9917 -0.482387
upperneck -10.7987 -18.1204 0.124862
head -1.5548 -9.35631 -0.225543
rclavicle -1.20861e-013 7.63333e-014
rhumerus 54.1795 -22.4698 -20.6576
rradius 21.1239
rwrist 12.09
rhand -32.0401 1.59894
rfingers 7.12502
rthumb -5.28746 -28.3151
lclavicle -1.20861e-013 7.63333e-014
lhumerus -26.4212 -24.4286 97.1061
lradius 77.6366
lwrist 16.0639
lhand -7.42252 26.1482
lfingers 7.12502
lthumb 18.4644 55.2919
rfemur -103.596 -15.4109 12.2249
rtibia 43.4379
rfoot -6.07317 -12.1016
rtoes 20.7659
lfemur -49.8488 1.28378 -9.8302
ltibia 32.6069
lfoot 12.0316 -5.63368
ltoes -10.9244
308
root -0.806556 17.041 -3.553 85.4818 28.031 24.723
lowerback 19.5244 5.08659 7.70901
upperback 13.7631 7.96904 12.7966
thorax 3.39589 3.89341 8.30734
lowerneck -11.3506 -12.9503 -0.629866
upperneck -11.0884 -18.0443 0.363493
head -1.61951 -9.31774 -0.119375
rclavicle 3.81667e-014 -3.18055e-014
rhumerus 54.3683 -22.4211 -21.0691
rradius 20.9466
rwrist 12.7509
rhand -33.1564 1.45642
rfingers 7.12502
rthumb -6.36521 -28.4279
lclavicle 3.81667e-014 -3.18055e-014
lhumerus -26.302 -24.4748 97.0418
lradius 78.0944
lwrist 15.7523
lhand -7.70585 26.235
lfingers 7.12502
lthumb 18.1919 55.4043
rfemur -103.735 -15.3125 12.3277
rtibia 43.4192
rfoot -5.93729 -12.0557
rtoes 20.3045
lfemur -49.8996 1.23657 -9.74955
ltibia 32.8322
lfoot 12.1519 -5.7405
ltoes -10.1485
309
root -0.803296 17.039 -3.5371 85.5389 28.1186 24.6064
lowerback 19.6722 5.03685 7.85781
upperback 13.789 7.94189 12.7956
thorax 3.37565 3.88606 8.21944
lowerneck -11.4038 -12.8929 -0.693934
upperneck -11.2969 -17.9532 0.548568
head -1.65464 -9.27451 -0.0505735
rclavicle -1.59028e-013 3.81667e-014
rhumerus 54.9947 -22.7565 -22.3835
rradius 20.5627
rwrist 14.1966
rhand -34.2953 1.70926
rfingers 7.12502
rthumb -7.46458 -28.139
lclavicle -1.59028e-013 3.81667e-014
lhumerus -26.1912 -24.3838 96.9246
lradius 78.6632
lwrist 15.6237
lhand -7.72492 26.3921
lfingers 7.12502
lthumb 18.1735 55.5631
rfemur -103.794 -15.183 12.4085
rtibia 43.3885
rfoot -5.96963 -12.0446
rtoes 20.4764
lfemur -49.8897 1.18207 -9.62414
ltibia 33.056
lfoot 12.1122 -6.04522
ltoes -10.5068
310
root -0.791341 17.0373 -3.52777 85.7586 28.1022 24.7407
lowerback 19.6837 4.90596 7.99997
upperback 13.7751 7.79939 12.7546
thorax 3.3942 3.82622 8.12047
lowerneck -11.5647 -12.8364 -0.647734
upperneck -11.3886 -17.878 0.624207
head -1.65605 -9.24237 -0.0408407
rclavicle -6.99722e-014 -1.27222e-014
rhumerus 56.1534 -23.6227 -24.8846
rradius 19.9811
rwrist 16.5195
rhand -34.9894 3.27581
rfingers 7.12502
rthumb -8.13451 -26.5476
lclavicle -6.99722e-014 -1.27222e-014
lhumerus -26.1224 -24.1906 96.7999
lradius 79.3162
lwrist 15.9682
lhand -7.64067 26.1915
lfingers 7.12502
lthumb 18.2546 55.355
rfemur -103.796 -15.311 12.1459
rtibia 43.3386
rfoot -6.03087 -12.2149
rtoes 20.8961
lfemur -50.0091 0.605617 -9.52449
ltibia 33.2725
lfoot 12.058 -6.10477
ltoes -11.1334
311
root -0.785971 17.0368 -3.51887 85.9652 28.0328 24.727
lowerback 19.562 4.90236 7.92575
upperback 13.767 7.76873 12.7549
thorax 3.43858 3.80703 8.1775
lowerneck -11.5917 -12.7842 -0.632715
upperneck -11.5359 -17.8084 0.70629
head -1.69286 -9.21082 -0.012772
rclavicle -2.8625e-014 -6.04305e-014
rhumerus 57.0543 -24.3276 -26.9655
rradius 19.5405
rwrist 18.2315
rhand -38.0848 3.60921
rfingers 7.12502
rthumb -11.1211 -26.0761
lclavicle -2.8625e-014 -6.04305e-014
lhumerus -26.081 -24.2104 96.8159
lradius 79.9086
lwrist 15.7955
lhand -8.11027 25.819
lfingers 7.12502
lthumb 17.8027 55.0241
rfemur -103.876 -15.2746 11.8478
rtibia 43.2765
rfoot -5.9707 -12.4472
rtoes 20.7315
lfemur -50.1956 0.189665 -9.46322
ltibia 33.4741
lfoot 12.0722 -6.21629
ltoes -11.103
312
root -0.77969 17.0383 -3.51136 86.1446 28.0409 24.6995
lowerback 19.1241 5.3162 7.65836
upperback 13.7962 8.20436 13.0838
thorax 3.56869 3.99039 8.66186
lowerneck -11.2165 -12.9711 -0.339674
upperneck -11.9807 -18.1543 0.515598
head -1.94568 -9.39884 -0.0600209
rclavicle -3.18055e-015 9.22361e-014
rhumerus 56.2905 -24.7913 -26.6328
rradius 19.5256
rwrist 18.2541
rhand -39.287 4.03545
rfingers 7.12502
rthumb -12.2804 -25.584
lclavicle -3.18055e-015 9.22361e-014
lhumerus -26.0286 -25.1507 97.4203
lradius 80.4798
lwrist 15.5416
lhand -8.55906 25.6825
lfingers 7.12502
lthumb 17.3708 54.9262
rfemur -103.975 -15.2457 11.7828
rtibia 43.1984
rfoot -5.90474 -12.5593
rtoes 20.5321
lfemur -50.3981 -0.0214751 -9.44312
ltibia 33.6652
lfoot 12.0633 -6.64008
ltoes -11.1743
